<svg xmlns="http://www.w3.org/2000/svg" viewBox="0 0 6270.78 1337.64"><defs><style>.cls-1{fill:#0700ff;}.cls-2{fill:#58595b;}</style></defs><g id="Layer_2" data-name="Layer 2"><g id="Layer_1-2" data-name="Layer 1"><polygon class="cls-1" points="656.61 643.45 553.37 643.45 553.12 643.03 553.53 643.03 453.59 473.03 353.65 643.03 354.06 643.03 289.1 753.82 187.05 753.82 400.57 382.84 446.06 303.81 453.59 292.09 461.12 303.81 506.61 382.84 656.61 643.45"/><polygon class="cls-1" points="618.48 753.82 618.08 753.82 585.43 698.14 618.48 753.82"/><circle class="cls-2" cx="16.52" cy="646.17" r="16.52"/><circle class="cls-2" cx="30.8" cy="807.93" r="26.66"/><circle class="cls-2" cx="85.14" cy="958.45" r="34.19"/><circle class="cls-2" cx="176.94" cy="1085.67" r="41.14"/><circle class="cls-2" cx="309.81" cy="1044.37" r="33.03"/><circle class="cls-2" cx="208.89" cy="943.99" r="26.08"/><circle class="cls-2" cx="298.22" cy="913.81" r="11.3"/><circle class="cls-2" cx="135.42" cy="817.62" r="13.91"/><circle class="cls-2" cx="404.31" cy="989.28" r="23.18"/><circle class="cls-2" cx="466.26" cy="933.16" r="12.17"/><circle class="cls-2" cx="300.35" cy="1189.2" r="50.22"/><circle class="cls-2" cx="433.62" cy="1114.33" r="38.92"/><circle class="cls-2" cx="528.61" cy="1033.68" r="26.27"/><circle class="cls-2" cx="582.67" cy="952.72" r="23.18"/><circle class="cls-2" cx="440.49" cy="1255.08" r="49.45"/><circle class="cls-2" cx="572.25" cy="1151.17" r="41.72"/><circle class="cls-2" cx="652.02" cy="1042.06" r="34"/><circle class="cls-2" cx="780.97" cy="1021.36" r="36.99"/><circle class="cls-2" cx="698.2" cy="942.34" r="24.73"/><circle class="cls-2" cx="806" cy="900.33" r="28.4"/><circle class="cls-2" cx="900.94" cy="832.64" r="34.58"/><circle class="cls-2" cx="602.04" cy="1285.87" r="51.77"/><circle class="cls-2" cx="714.05" cy="1155.85" r="45.59"/><circle class="cls-2" cx="762.56" cy="1278.03" r="51.77"/><circle class="cls-2" cx="922.86" cy="1233.84" r="49.45"/><circle class="cls-2" cx="856.93" cy="1119.47" r="49.45"/><circle class="cls-2" cx="984.31" cy="1050.79" r="48.49"/><circle class="cls-2" cx="897.56" cy="967.22" r="39.21"/><circle class="cls-2" cx="1000.14" cy="887.66" r="41.43"/><circle class="cls-2" cx="1061.79" cy="1152.21" r="44.24"/><circle class="cls-2" cx="1185.56" cy="1037.28" r="38.05"/><circle class="cls-2" cx="1095.18" cy="952.73" r="41.72"/><circle class="cls-2" cx="1279.69" cy="897.5" r="34.19"/><circle class="cls-2" cx="1178.93" cy="830.19" r="41.43"/><circle class="cls-2" cx="1076.94" cy="779.18" r="42.3"/><circle class="cls-2" cx="976.38" cy="745.8" r="34.77"/><circle class="cls-2" cx="1027.73" cy="638.85" r="35.35"/><circle class="cls-2" cx="1131.12" cy="659.04" r="37.96"/><circle class="cls-2" cx="1236.37" cy="693.65" r="37.38"/><circle class="cls-2" cx="1337.99" cy="742.93" r="23.47"/><circle class="cls-2" cx="1361.72" cy="581.35" r="9.27"/><circle class="cls-2" cx="1260.49" cy="545.97" r="31"/><circle class="cls-2" cx="1156.06" cy="528.15" r="36.8"/><circle class="cls-2" cx="1053.21" cy="525.05" r="36.22"/><circle class="cls-2" cx="1048.75" cy="404.01" r="35.35"/><circle class="cls-2" cx="1148.23" cy="391.61" r="29.26"/><circle class="cls-2" cx="1250.58" cy="396.47" r="19.41"/><circle class="cls-2" cx="1208.14" cy="252.05" r="10.14"/><circle class="cls-2" cx="1109.47" cy="263.25" r="26.95"/><circle class="cls-2" cx="1018.54" cy="290.32" r="31.58"/><circle class="cls-2" cx="960.53" cy="183.59" r="29.36"/><circle class="cls-2" cx="1046.59" cy="143.99" r="20.28"/><circle class="cls-2" cx="957.47" cy="45.65" r="11.01"/><circle class="cls-2" cx="882.76" cy="92.04" r="24.92"/><circle class="cls-2" cx="783.88" cy="19.51" r="19.51"/><polygon class="cls-1" points="874 645.29 402.09 643.99 447.19 566.08 447.29 566.08 447.19 566 705.75 566 486.06 191.43 548.75 89.12 822.43 557.13 843.31 592.82 874 645.29"/><polygon class="cls-1" points="742.26 789.6 639.73 789.6 618.48 753.82 585.43 698.14 688.09 698.14 728.15 765.78 742.26 789.6"/><path class="cls-1" d="M2017.88,842.8H1656.11L1608,915h-25.22L1867.1,490.78,2154.33,915H2066ZM1669.3,822.73h334.82L1837.28,572.19Z"/><path class="cls-1" d="M2084.39,504l228.76,342.84L2542.48,504h25.22L2283.34,928.23,1996.1,504Z"/><path class="cls-1" d="M2844.62,842.8H2482.86L2434.7,915h-25.23l284.37-424.26L2981.07,915h-88.29ZM2496,822.73h334.82L2664,572.19Z"/><path class="cls-1" d="M3048.73,599.71V915h-20.64V490.78l428.84,336.54V504h20.64V928.23Z"/><path class="cls-1" d="M3726.39,915V524H3528V504h476.44V524h-197.8V915Z"/><path class="cls-1" d="M4054.9,915V504h21.79V915Z"/><path class="cls-2" d="M4157,915V504h258.57q39.56,0,71.95,10.61t55,30.09a136.2,136.2,0,0,1,35.26,47q12.6,27.51,12.61,61.34t-12.61,61.35a133.35,133.35,0,0,1-35.26,46.72q-22.65,19.21-55,29.82t-71.95,10.6H4237.21V915Zm258.57-133.58q34.39,0,62.78-9.18t48.44-25.8a112.65,112.65,0,0,0,31-40.42q10.89-23.77,10.9-53t-10.9-53a115.51,115.51,0,0,0-31-40.71q-20.07-16.9-48.44-26.08T4415.52,524H4237.21V781.46Z"/><path class="cls-2" d="M5123.57,715q0,48.16-19.78,86.86a202.92,202.92,0,0,1-53.31,65.93q-33.54,27.24-78.55,42.14a299.76,299.76,0,0,1-94.88,14.91,284.71,284.71,0,0,1-91.74-14.91q-44.15-14.89-78-42.14a204.38,204.38,0,0,1-53.89-65.93q-20.08-38.7-20.07-86.86t18.92-88a211,211,0,0,1,51.89-68.81q33-28.93,77.4-45t95.46-16.05a280.6,280.6,0,0,1,94.88,16.05q45,16.07,78.55,45A218.14,218.14,0,0,1,5103.79,627Q5123.57,666.81,5123.57,715Zm-21.78,0q0-43.56-18.06-79.69A199,199,0,0,0,5035,572.77q-30.67-26.37-71.66-41a255.12,255.12,0,0,0-86.28-14.62q-46.44,0-86.86,14.62t-70.52,41a191.81,191.81,0,0,0-47.3,62.49q-17.21,36.12-17.2,79.69t18.35,78.55a187.11,187.11,0,0,0,49,59.62q30.68,24.66,70.81,38.13a261.25,261.25,0,0,0,83.71,13.47,274.67,274.67,0,0,0,86.28-13.47q41-13.47,71.66-38.13a184,184,0,0,0,48.74-59.62Q5101.79,758.54,5101.79,715Z"/><path class="cls-2" d="M5192.36,915V504h21.79V915Z"/><path class="cls-2" d="M5315.05,599.71V915h-20.64V490.78l428.85,336.54V504h20.64V928.23Z"/><path class="cls-2" d="M5992.72,915V524H5794.35V504h476.43V524H6073V915Z"/></g></g></svg>