<svg id="Layer_1" data-name="Layer 1" xmlns="http://www.w3.org/2000/svg" viewBox="0 0 376.57 52.56"><defs><style>.cls-1{fill:#6d6e71;}.cls-2{fill:#09f;}.cls-3{fill:#fff;}</style></defs><path class="cls-1" d="M66.48,43.21V9h5.57V43.21Z" transform="translate(-0.02 0.03)"/><path class="cls-1" d="M80,43.21V7.64l21.74,20.92q.89.89,1.8,1.89c.61.67,1.24,1.43,1.91,2.27V9h5.15V44.55L88.45,23.25c-.59-.57-1.16-1.18-1.71-1.82s-1.08-1.31-1.58-2V43.21Z" transform="translate(-0.02 0.03)"/><path class="cls-1" d="M118.49,43.21V9h19.1v4.72H124.05v8.54h13.54v4.88H124.05V43.21Z" transform="translate(-0.02 0.03)"/><path class="cls-1" d="M148.83,27.9V43.21h-5.21V9h7.76a24.08,24.08,0,0,1,5.3.45,8.18,8.18,0,0,1,3.21,1.47,8.08,8.08,0,0,1,2.45,3.2,10.49,10.49,0,0,1,.87,4.3,9.56,9.56,0,0,1-2,6.44,8.74,8.74,0,0,1-5.87,2.8l11.79,15.56h-6.29L149.46,27.9Zm.35-4.32h1q4.41,0,5.87-1c1-.68,1.44-1.9,1.44-3.65s-.51-3.21-1.55-4-3-1.16-5.76-1.16h-1Z" transform="translate(-0.02 0.03)"/><path class="cls-1" d="M193,43.21l-3.88-8.81H175.6l-4,8.81h-5.84L182.35,7.64,198.9,43.21ZM177.65,29.77h9.54L183.68,22c-.2-.5-.41-1.07-.63-1.72s-.43-1.37-.65-2.16c-.19.74-.39,1.44-.6,2.09s-.42,1.24-.64,1.79Z" transform="translate(-0.02 0.03)"/><path class="cls-1" d="M220.24,25.68H233.8c0,.24,0,.56,0,1,0,1.11.07,1.86.07,2.25q0,7.22-4.14,11.22t-11.67,4a21.37,21.37,0,0,1-7.5-1.24,16,16,0,0,1-5.77-3.74,16.89,16.89,0,0,1-3.73-5.82,19.53,19.53,0,0,1-1.3-7.16A19,19,0,0,1,201.11,19,16.48,16.48,0,0,1,205,13.25a16.65,16.65,0,0,1,5.86-3.74,20,20,0,0,1,7.2-1.29,17.12,17.12,0,0,1,7.24,1.47A16.19,16.19,0,0,1,231,14.21L227,17.27a11.15,11.15,0,0,0-3.9-3,11.6,11.6,0,0,0-4.86-1,12.18,12.18,0,0,0-9.08,3.57,12.59,12.59,0,0,0-3.52,9.27,12.91,12.91,0,0,0,3.52,9.41,12.18,12.18,0,0,0,9.12,3.61,11.61,11.61,0,0,0,7.51-2.22,7.39,7.39,0,0,0,2.73-6.06v-.49h-8.23Z" transform="translate(-0.02 0.03)"/><path class="cls-1" d="M239.83,43.21V9h5.56V43.21Z" transform="translate(-0.02 0.03)"/><path class="cls-1" d="M251.43,36.37l4.44-2.06a6.09,6.09,0,0,0,2.31,3.49,7.17,7.17,0,0,0,4.3,1.21,5.5,5.5,0,0,0,3.94-1.38,4.82,4.82,0,0,0,1.46-3.7q0-3-5-5.37c-.47-.24-.83-.41-1.07-.52q-5.67-2.76-7.54-5a8.15,8.15,0,0,1-1.89-5.46,8.76,8.76,0,0,1,2.84-6.77,10.63,10.63,0,0,1,7.45-2.6A12.59,12.59,0,0,1,269,9.68a7.72,7.72,0,0,1,3.53,4.2l-4.34,2.24a7.34,7.34,0,0,0-2.26-2.36,5.31,5.31,0,0,0-2.82-.75,5.18,5.18,0,0,0-3.56,1.17,4,4,0,0,0-1.32,3.13q0,3.09,5.8,5.75l.7.33q5.07,2.34,7,4.57a8.35,8.35,0,0,1,1.9,5.58,10.07,10.07,0,0,1-3.07,7.72,11.62,11.62,0,0,1-8.27,2.87,12,12,0,0,1-7.17-2A9.41,9.41,0,0,1,251.43,36.37Z" transform="translate(-0.02 0.03)"/><path class="cls-1" d="M290.72,13.71v29.5h-5.56V13.71h-9.1V9h23.71v4.72Z" transform="translate(-0.02 0.03)"/><path class="cls-1" d="M304.11,43.21V9h5.57V43.21Z" transform="translate(-0.02 0.03)"/><path class="cls-1" d="M345.14,17.31a17.45,17.45,0,0,0-5-3,15.4,15.4,0,0,0-5.53-1,12.21,12.21,0,0,0-9.13,3.6A12.81,12.81,0,0,0,322,26.22a12.71,12.71,0,0,0,3.43,9.14A11.4,11.4,0,0,0,334,39a15.67,15.67,0,0,0,5.79-1.08,18.33,18.33,0,0,0,5.27-3.24v6.28a16.23,16.23,0,0,1-4.88,2.41,21,21,0,0,1-13-.49,17.16,17.16,0,0,1-9.7-9.57,18.72,18.72,0,0,1-1.34-7.1,18.53,18.53,0,0,1,1.34-7.07,17.49,17.49,0,0,1,9.74-9.63,19.33,19.33,0,0,1,7.12-1.29,18.9,18.9,0,0,1,5.76.87,20.39,20.39,0,0,1,5.3,2.65Z" transform="translate(-0.02 0.03)"/><path class="cls-1" d="M350.07,36.37l4.44-2.06a6.09,6.09,0,0,0,2.31,3.49A7.2,7.2,0,0,0,361.13,39a5.48,5.48,0,0,0,3.93-1.38,4.83,4.83,0,0,0,1.47-3.7q0-3-5-5.37c-.46-.24-.82-.41-1.07-.52q-5.65-2.76-7.54-5A8.2,8.2,0,0,1,351,17.59a8.72,8.72,0,0,1,2.84-6.77,10.59,10.59,0,0,1,7.44-2.6,12.63,12.63,0,0,1,6.34,1.46,7.76,7.76,0,0,1,3.53,4.2l-4.35,2.24a7.34,7.34,0,0,0-2.26-2.36,5.25,5.25,0,0,0-2.81-.75,5.19,5.19,0,0,0-3.57,1.17,4,4,0,0,0-1.32,3.13q0,3.09,5.8,5.75l.7.33q5.07,2.34,7,4.57a8.34,8.34,0,0,1,1.89,5.58,10.06,10.06,0,0,1-3.06,7.72,11.63,11.63,0,0,1-8.28,2.87,12,12,0,0,1-7.16-2A9.46,9.46,0,0,1,350.07,36.37Z" transform="translate(-0.02 0.03)"/><path class="cls-1" d="M376.59,10.89a2.76,2.76,0,1,1-2.75-2.68A2.7,2.7,0,0,1,376.59,10.89Zm-4.83,0a2.08,2.08,0,0,0,2.1,2.14,2,2,0,0,0,2-2.12,2.07,2.07,0,1,0-4.14,0Zm1.66,1.41h-.62V9.62a5.13,5.13,0,0,1,1-.09,1.72,1.72,0,0,1,.93.2.73.73,0,0,1,.26.59.69.69,0,0,1-.56.62v0a.79.79,0,0,1,.49.66,2.11,2.11,0,0,0,.2.67h-.67a2.29,2.29,0,0,1-.21-.66c0-.29-.21-.42-.56-.42h-.29Zm0-1.52h.3c.34,0,.62-.12.62-.39s-.18-.41-.57-.41a1.39,1.39,0,0,0-.35,0Z" transform="translate(-0.02 0.03)"/><rect class="cls-2" width="57.4" height="52.56"/><rect class="cls-3" x="8.91" y="8.95" width="9.18" height="9.05"/><path class="cls-3" d="M42.67,8.92H21.4V27H30V17.87h9.29v16.9H17.85V21.26H8.93v16.6a5.72,5.72,0,0,0,5.73,5.72H48.4V14.64A5.72,5.72,0,0,0,42.67,8.92Z" transform="translate(-0.02 0.03)"/></svg>